HIERARCHY
ROOT Hips
{
	OFFSET 0.0000 0.0000 0.0000
	CHANNELS 6 Xposition Yposition Zposition Zrotation Xrotation Yrotation
	JOINT Ab
	{
		OFFSET -0.0000 8.1305 -0.0000
		CHANNELS 3 Zrotation Xrotation Yrotation
		JOINT Chest
		{
			OFFSET -0.0000 26.2902 -0.0000
			CHANNELS 3 Zrotation Xrotation Yrotation
			JOINT Neck
			{
				OFFSET -0.0000 26.2902 0.0000
				CHANNELS 3 Zrotation Xrotation Yrotation
				JOINT Head
				{
					OFFSET -0.0000 10.8167 0.0000
					CHANNELS 3 Zrotation Xrotation Yrotation
					End Site
					{
						OFFSET -0.0000 16.7167 0.0000
					}
				}
			}
			JOINT LeftCollar
			{
				OFFSET -0.0000 26.2902 0.0000
				CHANNELS 3 Zrotation Xrotation Yrotation
				JOINT LeftShoulder
				{
					OFFSET 19.6667 -0.0000 0.0000
					CHANNELS 3 Zrotation Xrotation Yrotation
					JOINT LeftElbow
					{
						OFFSET 27.2190 0.0000 0.0000
						CHANNELS 3 Zrotation Xrotation Yrotation
						JOINT LeftWrist
						{
							OFFSET 30.7431 0.0000 0.0000
							CHANNELS 3 Zrotation Xrotation Yrotation
							End Site
							{
								OFFSET 0.0000 -14.7500 0.0000
							}
						}
					}
				}
			}
			JOINT RightCollar
			{
				OFFSET -0.0000 26.2902 0.0000
				CHANNELS 3 Zrotation Xrotation Yrotation
				JOINT RightShoulder
				{
					OFFSET -19.6667 0.0000 0.0000
					CHANNELS 3 Zrotation Xrotation Yrotation
					JOINT RightElbow
					{
						OFFSET -27.2190 0.0000 0.0000
						CHANNELS 3 Zrotation Xrotation Yrotation
						JOINT RightWrist
						{
							OFFSET -30.7431 0.0000 0.0000
							CHANNELS 3 Zrotation Xrotation Yrotation
							End Site
							{
								OFFSET -0.0000 -14.7500 0.0000
							}
						}
					}
				}
			}
		}
	}
	JOINT LeftHip
	{
		OFFSET 11.8000 0.0000 0.0000
		CHANNELS 3 Zrotation Xrotation Yrotation
		JOINT LeftKnee
		{
			OFFSET -0.0000 -39.7832 0.0000
			CHANNELS 3 Zrotation Xrotation Yrotation
			JOINT LeftAnkle
			{
				OFFSET -0.0000 -41.7317 0.0000
				CHANNELS 3 Zrotation Xrotation Yrotation
				End Site
				{
					OFFSET -0.0000 -4.9167 16.7167
				}
			}
		}
	}
	JOINT RightHip
	{
		OFFSET -11.8000 0.0000 0.0000
		CHANNELS 3 Zrotation Xrotation Yrotation
		JOINT RightKnee
		{
			OFFSET -0.0000 -39.7832 0.0000
			CHANNELS 3 Zrotation Xrotation Yrotation
			JOINT RightAnkle
			{
				OFFSET -0.0000 -41.7317 0.0000
				CHANNELS 3 Zrotation Xrotation Yrotation
				End Site
				{
					OFFSET -0.0000 -4.9167 16.7167
				}
			}
		}
	}
}
MOTION
Frames: 22
Frame Time: 0.010000
-17.4256 96.7630 177.8203 358.6942 358.0757 178.1706 358.3568 348.5152 0.4523 2.3847 9.3566 0.4225 358.6594 353.8167 1.3673 356.7475 4.1395 1.5583 338.9015 357.3815 14.0559 319.2284 58.8449 339.8012 8.5156 357.5054 327.4019 85.2126 356.6921 345.7712 28.4411 355.9406 344.0909 44.8203 45.7821 3.5610 341.6608 354.8015 31.3274 270.7819 355.6979 10.9366 356.8824 3.1549 359.1243 357.6249 9.3272 359.9997 355.4139 348.7698 21.0380 359.6575 7.5471 8.9376 6.0357 4.6133 6.0968 350.2695 343.4223 318.4000 
-17.4454 96.7597 177.8169 358.6967 358.0536 178.1548 358.3512 348.5177 0.4548 2.4090 9.3659 0.4208 358.6540 353.7954 1.3869 356.7549 4.1689 1.5786 338.8908 357.3676 14.0643 319.2298 58.8433 339.8089 8.5436 357.4931 327.3687 85.1467 356.7021 345.7561 28.4222 355.9417 344.0947 44.8316 45.7668 3.5601 341.6402 354.8044 31.3350 270.8080 355.6719 10.9291 356.8727 3.0907 359.0871 357.6114 9.4219 359.9805 354.2327 348.4435 21.0750 359.6360 7.5108 8.9766 6.0542 4.6418 6.0999 350.2980 343.3625 318.3751 
-17.4680 96.7584 177.8064 358.6981 358.0402 178.1425 358.3507 348.5195 0.4545 2.4204 9.3798 0.4191 358.6734 353.7831 1.4053 356.7402 4.2023 1.5982 338.8989 357.3692 14.0575 319.1900 58.8489 339.8417 8.5469 357.5040 327.3563 85.1485 356.7023 345.7606 28.4170 355.9486 344.0903 44.8231 45.7191 3.5577 341.6552 354.8012 31.4121 270.7049 355.8075 10.7017 356.8572 3.0301 359.0336 357.5964 9.5338 359.9999 354.1557 348.3171 21.0958 359.6121 7.4914 9.0058 6.0675 4.6697 6.0949 350.3169 343.3081 318.3699 
-17.4893 96.7544 177.8009 358.7065 358.0161 178.1294 358.3594 348.5184 0.4552 2.4234 9.3881 0.4201 358.4056 354.0304 1.3723 357.1464 3.8501 1.5524 338.9120 357.3556 14.0677 319.2102 58.8844 339.8010 8.5619 357.4790 327.3634 85.1267 356.6999 345.7575 28.4078 355.9345 344.0865 44.8300 45.7242 3.5475 341.6325 354.8027 31.4253 270.7291 355.8026 10.6601 356.8523 2.9520 358.9917 357.5779 9.6591 359.9805 354.2797 348.2350 21.1504 359.5972 7.4519 9.0336 6.0826 4.7142 6.0947 350.3036 343.2573 318.3585 
-17.5131 96.7510 177.7939 358.7110 357.9966 178.1162 358.3644 348.5290 0.4598 2.4290 9.3855 0.4217 358.2300 354.1833 1.3629 357.4210 3.6401 1.5360 338.9190 357.3604 14.0872 319.2530 58.9203 339.7414 8.5430 357.5019 327.3749 85.1101 356.6832 345.7738 28.3971 355.9456 344.0840 44.8479 45.7116 3.5263 341.6370 354.7916 31.4576 270.8268 355.7494 10.4855 356.8418 2.8763 358.9322 357.5554 9.7860 0.0027 354.3596 348.1363 21.1732 359.5767 7.4149 9.0344 6.0964 4.7623 6.1052 350.3858 343.0959 318.3405 
-17.5413 96.7494 177.7836 358.7073 357.9771 178.0956 358.3781 348.5314 0.4619 2.4178 9.3993 0.4213 358.2343 354.1553 1.3809 357.4307 3.6927 1.5548 338.9283 357.3695 14.1154 319.3160 58.9528 339.6481 8.5576 357.4868 327.4140 84.7859 356.6562 345.5945 28.4004 355.9600 344.0775 44.8267 45.6989 3.5401 341.6430 354.7947 31.4801 270.9647 355.6818 10.3351 356.8158 2.7983 358.8666 357.5382 9.9197 0.0179 354.4423 348.0272 21.2157 359.5381 7.3761 9.0604 6.1223 4.8166 6.1138 350.4522 342.9379 318.2977 
-17.5686 96.7459 177.7762 358.7121 357.9548 178.0771 358.4047 348.5397 0.4600 2.3956 9.4093 0.4215 358.2444 354.1248 1.3959 357.4346 3.7456 1.5713 338.9475 357.3756 14.1248 319.2978 58.9499 339.6422 8.5648 357.4815 327.3970 84.7839 356.6718 345.5979 28.4026 355.9403 344.0736 44.8130 45.7091 3.5561 341.6296 354.7864 31.4748 270.9047 355.6863 10.3964 356.8002 2.7148 358.7995 357.5197 10.0527 0.0490 354.5926 347.9449 21.2419 359.5133 7.3248 9.1095 6.1457 4.8871 6.1016 350.5148 342.8029 318.2861 
-17.5982 96.7417 177.7667 358.7150 357.9344 178.0537 358.4309 348.5488 0.4601 2.3806 9.4260 0.4187 358.2601 354.0955 1.4244 357.4216 3.7870 1.6010 338.9613 357.3682 14.1512 319.2854 58.9408 339.6131 8.5917 357.4812 327.3816 84.9196 356.7054 345.7330 28.4041 355.9558 344.0787 44.7949 45.6908 3.5519 341.7004 354.7939 31.5037 270.6800 355.7839 10.6484 356.7835 2.6626 358.5264 357.4596 10.1256 0.2625 354.6901 347.8641 21.2889 359.4830 7.2689 9.1411 6.1701 4.9774 6.1183 350.4976 342.7055 318.3161 
-17.6289 96.7386 177.7575 358.7133 357.9020 178.0256 358.4316 348.5317 0.4677 2.3910 9.4695 0.4267 358.3202 354.0555 1.4511 357.3409 3.8379 1.6282 338.9697 357.3635 14.1465 319.2247 58.9106 339.6701 8.5826 357.4765 327.3380 84.9061 356.7195 345.6912 28.3897 355.9551 344.0926 44.7883 45.6538 3.5612 341.6639 354.7907 31.5473 270.9026 355.6865 10.2955 356.7594 2.5615 358.4446 357.4322 10.2780 0.2869 354.7996 347.7418 21.3292 359.4470 7.1915 9.1723 6.1973 5.0814 6.1314 350.6065 342.4454 318.2657 
-17.6599 96.7341 177.7459 358.7154 357.8871 177.9930 358.4502 348.5511 0.4705 2.3829 9.4753 0.4273 358.3364 354.0605 1.4832 357.3391 3.8464 1.6609 338.9713 357.3542 14.1580 319.2594 58.9243 339.6367 8.5826 357.4857 327.3340 84.9695 356.7006 345.7839 28.3939 355.9641 344.1166 44.7891 45.6024 3.5204 341.7212 354.8022 31.5756 270.6372 355.7382 10.4761 356.7376 2.4845 358.3886 357.4170 10.4217 0.2892 354.8701 347.6099 21.3616 359.4108 7.1272 9.2021 6.2340 5.1929 6.1471 350.7698 342.1704 318.2398 
-17.6933 96.7296 177.7325 358.7141 357.8615 177.9656 358.4725 348.5609 0.4714 2.3651 9.4786 0.4260 358.3408 354.0682 1.5166 357.3563 3.8505 1.6932 338.9734 357.3636 14.1634 319.2436 58.9123 339.6605 8.5566 357.4824 327.2822 85.3187 356.7762 345.9716 28.3976 355.9629 344.1495 44.8117 45.5657 3.4595 341.7292 354.7883 31.6058 270.6353 355.7593 10.5497 356.7077 2.3848 358.3257 357.4004 10.5930 0.3045 354.9683 347.4820 21.3957 359.3702 7.0422 9.1350 6.2652 5.3364 6.2322 350.9106 341.8966 318.2324 
-17.7260 96.7225 177.7133 358.7184 357.8423 177.9333 358.5013 348.5768 0.4712 2.3468 9.4829 0.4240 358.3425 354.0623 1.5482 357.3646 3.8841 1.7250 338.9869 357.3552 14.1770 319.2058 58.9192 339.6923 8.6073 357.4571 327.2273 85.5832 356.8548 346.2158 28.4115 355.9689 344.1725 44.7863 45.5369 3.4378 341.7590 354.7930 31.6233 270.6536 355.7419 10.6138 356.6894 2.3039 358.2585 357.3688 10.7510 0.3037 354.9701 347.3131 21.4616 359.3351 6.9758 9.1269 6.2996 5.4640 6.2900 350.8130 341.7251 318.1864 
-17.7612 96.7142 177.6937 358.7215 357.8203 177.8943 358.5256 348.5919 0.4758 2.3353 9.4896 0.4296 358.3554 354.0606 1.5825 357.3618 3.9094 1.7599 338.9907 357.3581 14.1903 319.1721 58.8922 339.7360 8.5805 357.4605 327.1953 85.5601 356.8585 346.1971 28.4244 355.9693 344.2030 44.7634 45.5104 3.4020 341.7814 354.7804 31.6678 270.6292 355.7643 10.6009 356.6648 2.2158 358.2060 357.3437 10.9193 0.3100 355.0085 347.1448 21.5221 359.2912 6.9011 9.1397 6.3490 5.5943 6.3274 350.9109 341.4346 318.1581 
-17.7986 96.7052 177.6740 358.7250 357.8017 177.8546 358.5424 348.6136 0.4864 2.3396 9.5027 0.4372 358.3479 354.0464 1.6070 357.3704 3.9362 1.7857 339.0044 357.3491 14.2167 319.1643 58.9226 339.7171 8.6157 357.4405 327.1842 85.6246 356.8658 346.2866 28.4310 355.9861 344.2220 44.7297 45.4555 3.3886 341.8261 354.7958 31.6969 270.6433 355.7495 10.7015 356.6374 2.1322 358.1582 357.3241 11.0831 0.3175 355.2782 347.0465 21.5467 359.2449 6.8262 9.1543 6.3994 5.7337 6.3562 350.9619 341.1662 318.1554 
-17.8369 96.6952 177.6492 358.7346 357.7889 177.8250 358.5782 348.6426 0.4873 2.3125 9.5016 0.4345 358.3349 354.0823 1.6289 357.4204 3.9216 1.8052 339.0386 357.3489 14.2120 319.0643 58.9212 339.8139 8.6403 357.4454 327.1684 85.5143 356.8340 346.2449 28.4455 355.9933 344.2428 44.7185 45.4292 3.3654 341.8285 354.7994 31.7274 270.6441 355.7604 10.6841 356.6114 2.0533 358.0850 357.3105 11.2508 0.3532 355.3586 346.9118 21.4928 359.2093 6.7655 9.1394 6.4401 5.8724 6.4139 351.0414 340.8724 318.1587 
-17.8780 96.6821 177.6273 358.7476 357.7609 177.8070 358.5869 348.6606 0.4967 2.3365 9.5171 0.4387 358.3435 354.0848 1.6441 357.4175 3.9299 1.8205 339.0322 357.3578 14.2172 319.0355 58.8838 339.8484 8.6012 357.4635 327.1495 85.4342 356.8089 346.1533 28.4165 355.9771 344.2361 44.7121 45.4505 3.3790 341.7783 354.7825 31.7368 270.6966 355.7768 10.6389 356.5893 1.9509 357.9862 357.2945 11.4354 0.3463 354.8611 346.6237 21.5533 359.1724 6.6855 9.1304 6.4918 6.0165 6.4755 351.0987 340.5612 318.1334 
-17.9218 96.6725 177.5996 358.7462 357.7365 177.7823 358.5889 348.6748 0.4968 2.3514 9.5411 0.4396 358.3628 354.0643 1.6594 357.3943 3.9642 1.8366 339.0502 357.3560 14.2247 318.9667 58.8532 339.8849 8.6172 357.4582 327.1315 85.3792 356.7948 346.1371 28.4040 355.9839 344.2374 44.7011 45.4279 3.3615 341.8010 354.7882 31.7652 270.7021 355.8118 10.7488 356.5577 1.8956 357.7010 357.2231 11.5271 0.6027 354.4447 346.4048 21.5575 359.1178 6.6141 9.1320 6.5428 6.1586 6.5369 351.1662 340.2705 318.1166 
-17.9679 96.6616 177.5711 358.7474 357.7077 177.7560 358.5984 348.6885 0.4987 2.3617 9.5607 0.4388 358.3837 354.0447 1.6835 357.3714 3.9937 1.8609 339.0570 357.3460 14.2199 318.8986 58.8167 339.9703 8.5977 357.4554 327.0845 85.3939 356.7727 346.0765 28.4051 355.9891 344.2541 44.6575 45.3815 3.3550 341.8460 354.8054 31.7818 270.7167 355.7652 10.8390 356.5200 1.8083 357.6127 357.2149 11.6796 0.6073 354.9494 346.5370 21.5125 359.0682 6.5392 9.1023 6.5864 6.2780 6.3527 351.4278 339.8302 318.2970 
-18.0168 96.6512 177.5375 358.7473 357.6722 177.7376 358.6161 348.6969 0.4970 2.3547 9.5777 0.4350 358.4235 354.0323 1.6997 357.3165 4.0315 1.8785 339.0763 357.3542 14.2377 318.8722 58.8154 340.0009 8.5624 357.4605 327.0414 85.2997 356.7942 346.0595 28.3959 355.9911 344.2633 44.6497 45.3820 3.3395 341.8766 354.7893 31.8160 270.5897 355.7715 10.8070 356.4796 1.7007 357.5339 357.2001 11.8674 0.5961 355.3160 346.5128 21.5296 359.0146 6.4655 9.0491 6.6363 6.4117 6.4446 351.4164 339.5659 318.2698 
-18.0684 96.6407 177.5073 358.7434 357.6212 177.7160 358.6209 348.7049 0.5003 2.3595 9.5783 0.4374 358.4233 354.0325 1.7142 357.3379 4.0469 1.8928 339.0935 357.3522 14.2585 318.8047 58.8152 340.0762 8.5966 357.4582 326.9992 85.1171 356.7259 345.9794 28.3873 355.9966 344.2795 44.6393 45.3752 3.3168 341.8827 354.7998 31.8450 270.5414 355.7597 10.7813 356.4320 1.5730 357.4722 357.1931 12.0668 0.5771 355.5365 346.3941 21.5915 358.9574 6.3654 8.9792 6.6836 6.5610 6.5416 351.4151 339.3344 318.2776 
-18.1217 96.6313 177.4717 358.7413 357.5730 177.6960 358.6306 348.7121 0.5038 2.3581 9.5858 0.4410 358.4106 354.0318 1.7238 357.3853 4.0567 1.9010 339.1073 357.3515 14.2982 318.8137 58.8346 340.0661 8.5974 357.4694 326.9740 85.0486 356.6697 345.9260 28.3865 356.0051 344.3002 44.6347 45.3028 3.2759 341.9196 354.8098 31.8943 270.5284 355.7484 10.8143 356.3869 1.4558 357.4087 357.1854 12.2557 0.5796 355.7546 346.2508 21.6437 358.9150 6.2465 8.5995 6.6810 6.7941 6.9018 351.4465 339.0677 318.3178 
-18.1748 96.6210 177.4308 358.7443 357.5251 177.6856 358.6545 348.7153 0.5032 2.3455 9.6018 0.4349 358.4102 354.0201 1.7280 357.3972 4.0882 1.9059 339.1413 357.3484 14.3188 318.7410 58.8443 340.1300 8.6110 357.4374 326.9351 85.0245 356.6649 345.8899 28.3887 356.0113 344.3095 44.6213 45.2622 3.2582 341.9391 354.8016 31.9308 270.5548 355.7480 10.8519 356.3531 1.3539 357.3430 357.1695 12.4197 0.5503 355.8241 346.0715 21.7201 358.8749 6.1599 8.5224 6.7096 6.9442 7.0247 351.4611 338.8359 318.3084 
